#!OML:ASF F:\VICON\USERDATA\INSTALL\rory3\rory3.ASF
:FULLY-SPECIFIED
:DEGREES
61
root -0.33400634475582236 17.802799431665587 42.56353143735722 -4.08144151375466 0.41135274285038337 -2.101159525162336
lfemur -1.3383332840811901 -2.9071568839117745 -14.825222210586992
ltibia 74.23610375168573
lfoot 19.051381432094587 -21.443158846257855
ltoes -9.540754715071747
rfemur -15.847741098490776 3.8705675287974763 30.760829026057582
rtibia 43.0705187519629
rfoot -6.509140343973097 -0.16226422840534038
rtoes 27.32825196038354
lowerback nan -1.641249201929747 0.7574810651477556
upperback -0.25096718839936727 -1.1345628866496835 2.693870519904436
thorax -6.240271023345397 -0.70291673318532 1.927304762606727
lowerneck -16.679276192194784 -2.906816688354126 -2.6339660662222535
upperneck 20.865474947956486 -3.210062749161763 1.3205622581637382
head 9.427435476210977 -1.7363289088426994 0.3449767266911431
lclavicle -4.2375290535097284e-14 -8.286716962952787e-16
lhumerus -27.087948393686638 7.860764595024415 79.54990048228845
lradius 23.30460750541194
lwrist 8.23152941309111
lhand -29.752698419676964 19.130915470848596
lfingers nan
lthumb -2.9851861002655777 49.15112931527202
rclavicle -4.111664372114213e-14 1.2368089734916418e-16
rhumerus -34.893824466955714 -24.79435430087633 -74.33069142735546
rradius 20.679362109609478
rwrist 10.183244066948948
rhand -16.15090567419371 nan
rfingers nan
rthumb 9.70862997369257 -10.153695850708523
62
root -0.39448636795965875 17.865035781528046 42.36435815217675 -4.193344159035349 0.07154325074039791 -3.6345964301331115
lfemur -8.628578535685236 -1.5803119435051225 -11.61494903523625
ltibia 82.17882419299686
lfoot 24.7486072411889 -20.815919956865
ltoes -4.19467581861552
rfemur -12.30891533958591 4.388403330251009 33.683936485298446
rtibia 41.28489677070796
rfoot -8.260464487043325 -0.9954811616485131
rtoes 24.902769024190604
lowerback nan -1.3407134282587787 2.3072925596470775
upperback -0.10832523514913701 -0.5734523464767047 3.051550957480881
thorax -6.16204121607228 -0.4285192285723325 1.1572278002526675
lowerneck -16.492667833405218 -2.9715472318976865 -2.763234943754684
upperneck 20.524320260298268 -3.4188452351617458 1.6493252617220586
head 9.256833093280601 -1.7833675497637227 0.47911178780644864
lclavicle -3.2828521996170293e-14 -2.2020811679663508e-15
lhumerus -28.273280457436883 7.350234315963135 80.31643139979582
lradius 22.096369962899722
lwrist 7.9772120780190185
lhand -27.36057923049772 21.339001110792406
lfingers nan
lthumb -0.6338029619575152 51.45580422971847
rclavicle -3.101600472758384e-14 -9.901431656062394e-16
rhumerus -32.54416444357866 -20.44336113831028 -77.4765929908681
rradius 22.375982947761372
rwrist 6.6594990173108695
rhand -16.077219896160248 nan
rfingers nan
rthumb 9.79018374474096 -8.302937731046967
63
root -0.4329304941821459 17.882330827893373 42.733396664978436 -4.45574863741997 -0.8408849550795923 -4.140597254117188
lfemur -14.113871798143116 1.1187615503847215 -10.598584247321247
ltibia 87.05052750204962
lfoot 16.725394893480193 -18.194616586492412
ltoes -10.459607295329079
rfemur -9.328388965632666 4.201665264351829 34.76861375479366
rtibia 40.863021351354334
rfoot -10.787241141985529 -0.1996055321601542
rtoes 25.629985677327866
lowerback nan -0.7722478490857911 3.2021443289141054
upperback 0.14644711478319877 0.2260171611741411 2.7837229848351766
thorax -6.042122095074899 -0.026484692809663868 0.25267026777750085
lowerneck -16.07916173489007 -3.1875303379167725 -2.6540904468130457
upperneck 20.179917655176563 -3.8866995647347866 1.7912999461973993
head 9.062791856484862 -1.9432391318064453 0.48604091480660805
lclavicle 2.4376440439831833e-14 -4.01291695186092e-15
lhumerus -29.508466240474235 7.060852344986825 80.92382874539221
lradius 19.991147802246278
lwrist 5.238913372958335
lhand -29.574049289932294 17.73303438189347
lfingers nan
lthumb -2.7764722703394216 47.77552929000796
rclavicle 2.6020874157795433e-14 -2.7419525476855052e-15
rhumerus -30.12422299582193 -19.881828783066673 -78.34995103568467
rradius 22.4045671344916
rwrist 8.71457663825189
rhand -15.732080227048852 nan
rfingers nan
rthumb 10.103769870560695 -10.332502619423234
64
root -0.4626458532059964 17.893723880183984 43.159521561732475 -4.337547282193243 -1.8877279522211805 -4.881376335976056
lfemur -19.536668811425045 3.745572895048103 -10.023358312900635
ltibia 89.40841178038006
lfoot 6.489515781381024 -14.017156673470463
ltoes -13.286239518250374
rfemur -6.849340713614174 4.1749574187275496 35.88364860532109
rtibia 39.870146314571464
rfoot -12.372744921405278 0.7007896492467207
rtoes 23.536619025005436
lowerback nan -0.21934175624769497 4.2924536633526875
upperback 0.16135605021736707 1.0270729966573395 2.7869236479488286
thorax -6.043609630429243 0.3707978193956349 -0.5193320067265039
lowerneck -15.78012332456133 -3.094185506794126 -2.747536465270607
upperneck 20.189986457145245 -3.7984894655470454 1.9158920555288879
head 9.038861072354653 -1.8933456340343295 0.5719046214240894
lclavicle 4.353802855293709e-15 9.903128021470335e-15
lhumerus -31.223840529350127 7.868424451844644 81.21632711128188
lradius 18.805748324948222
lwrist 3.102529834195091
lhand -27.73317384725907 14.950562767000338
lfingers nan
lthumb -0.991861901977734 45.089643092676184
rclavicle 6.35155593729746e-15 1.1455916856175e-14
rhumerus -27.623033457234712 -15.490302559302288 -80.72039387629529
rradius 23.134607445007255
rwrist 5.987024934611387
rhand -17.031032510089503 nan
rfingers nan
rthumb 8.8768318085991 -8.980530263449916
